<?xml version="1.0" standalone="no"?>
<!DOCTYPE svg PUBLIC "-//W3C//DTD SVG 20010904//EN"
 "http://www.w3.org/TR/2001/REC-SVG-20010904/DTD/svg10.dtd">
<svg version="1.0" xmlns="http://www.w3.org/2000/svg"
 width="236.000000pt" height="236.000000pt" viewBox="0 0 236.000000 236.000000"
 preserveAspectRatio="xMidYMid meet">
<metadata>
Created by potrace 1.11, written by Peter Selinger 2001-2013
</metadata>
<g transform="translate(0.000000,236.000000) scale(0.100000,-0.100000)"
fill="#000000" stroke="none">
<path d="M371 1635 c0 -663 2 -715 17 -716 9 0 199 -1 422 -1 223 0 411 -3
418 -5 6 -3 29 -33 50 -66 34 -56 37 -59 40 -34 3 20 -20 65 -88 172 l-92 145
-279 0 -279 0 0 406 c0 449 -3 434 61 329 18 -30 36 -55 40 -55 23 0 -26 97
-150 296 -77 124 -141 230 -141 235 0 5 -4 9 -9 9 -6 0 -10 -271 -10 -715z"/>
<path d="M905 1570 c-2 -3 47 -86 108 -185 87 -139 113 -175 115 -156 2 13 -9
44 -27 72 -27 44 -28 50 -13 57 9 4 125 7 258 6 281 -2 319 -9 379 -75 45 -50
55 -77 62 -162 10 -125 -31 -203 -134 -254 -52 -25 -67 -27 -169 -28 -62 0
-115 -2 -118 -5 -5 -6 47 -96 208 -353 49 -78 134 -214 189 -302 55 -88 102
-163 106 -167 4 -4 6 97 6 225 l0 232 -39 65 c-22 36 -48 76 -58 89 -24 32
-23 35 19 50 79 29 175 162 202 281 18 79 14 269 -8 332 -48 139 -141 224
-288 262 -49 13 -132 17 -428 19 -202 1 -368 0 -370 -3z"/>
</g>
</svg>
