<?xml version="1.0" encoding="utf-8"?>
<!-- Generator: Adobe Illustrator 16.0.0, SVG Export Plug-In . SVG Version: 6.00 Build 0)  -->
<!DOCTYPE svg PUBLIC "-//W3C//DTD SVG 1.1//EN" "http://www.w3.org/Graphics/SVG/1.1/DTD/svg11.dtd">
<svg version="1.1" id="Layer_1" xmlns="http://www.w3.org/2000/svg" xmlns:xlink="http://www.w3.org/1999/xlink" x="0px" y="0px"
	 width="175.521px" height="175.861px" viewBox="0 344.069 175.521 175.861" enable-background="new 0 344.069 175.521 175.861"
	 xml:space="preserve">
<g>
	<g>
		<polygon fill="#279CD7" points="153.411,373.323 175.521,347.811 175.521,344.069 131.641,344.069 131.641,366.18 153.411,366.18 
					"/>
		<polygon fill="#066FA2" points="153.411,366.18 153.411,387.95 175.521,387.95 175.521,344.069 		"/>
		<g>
			<polygon fill="#279CD7" points="70.072,453.6 65.991,453.6 65.991,366.18 87.42,366.18 87.42,432.17 91.502,432.17 
				113.272,410.06 109.531,410.06 109.531,344.069 43.88,344.069 43.88,475.37 48.643,475.37 			"/>
			<polygon fill="#279CD7" points="26.192,497.82 22.11,497.82 22.11,344.069 0,344.069 0,519.931 4.762,519.931 			"/>
		</g>
		<polygon fill="#066FA2" points="131.981,453.6 65.991,453.6 43.88,475.37 131.981,475.37 		"/>
		<polygon fill="#066FA2" points="109.531,410.06 87.42,432.17 153.411,432.17 153.411,497.82 22.11,497.82 0,519.931 
			175.521,519.931 175.521,410.06 		"/>
	</g>
</g>
</svg>
