<?xml version="1.0" encoding="utf-8"?>
<!-- Generator: Adobe Illustrator 18.1.1, SVG Export Plug-In . SVG Version: 6.00 Build 0)  -->
<svg version="1.1" id="Layer_1" xmlns="http://www.w3.org/2000/svg" xmlns:xlink="http://www.w3.org/1999/xlink" x="0px" y="0px"
	 viewBox="0 0 550.4 34.5" enable-background="new 0 0 550.4 34.5" xml:space="preserve">
<g>
	<g>
		<path fill="#99A1D1" d="M0,0.6h2.5v31H22v2.3H0V0.6z"/>
	</g>
	<g>
		
			<linearGradient id="SVGID_1_" gradientUnits="userSpaceOnUse" x1="413.0578" y1="490.5407" x2="970.8272" y2="490.5407" gradientTransform="matrix(1 0 0 1 -413.0578 -473.3026)">
			<stop  offset="0" style="stop-color:#99A1D1"/>
			<stop  offset="2.983357e-02" style="stop-color:#8BBCE5"/>
			<stop  offset="0.2927" style="stop-color:#5AA4DA"/>
			<stop  offset="0.3265" style="stop-color:#44AED0"/>
			<stop  offset="0.3631" style="stop-color:#39ABC1"/>
			<stop  offset="0.3968" style="stop-color:#2899AD"/>
			<stop  offset="0.4306" style="stop-color:#2293A8"/>
			<stop  offset="0.4607" style="stop-color:#1D889F"/>
			<stop  offset="0.5106" style="stop-color:#127498"/>
			<stop  offset="0.5495" style="stop-color:#127498"/>
			<stop  offset="0.589" style="stop-color:#127498"/>
			<stop  offset="0.6393" style="stop-color:#1D71A7"/>
			<stop  offset="0.68" style="stop-color:#2E72B4"/>
			<stop  offset="0.685" style="stop-color:#137797"/>
			<stop  offset="0.7185" style="stop-color:#6473B7"/>
			<stop  offset="0.739" style="stop-color:#6473B7"/>
			<stop  offset="0.7889" style="stop-color:#8D5FA7"/>
			<stop  offset="0.8268" style="stop-color:#985CA5"/>
			<stop  offset="0.9021" style="stop-color:#A869AB"/>
			<stop  offset="0.9792" style="stop-color:#AF6EAE"/>
			<stop  offset="1" style="stop-color:#BA74B0"/>
		</linearGradient>
		<path fill="url(#SVGID_1_)" d="M0,0.6h2.5v31H22v2.3H0V0.6z"/>
		
			<linearGradient id="SVGID_2_" gradientUnits="userSpaceOnUse" x1="413.0578" y1="490.5407" x2="970.8272" y2="490.5407" gradientTransform="matrix(1 0 0 1 -413.0578 -473.3026)">
			<stop  offset="0" style="stop-color:#99A1D1"/>
			<stop  offset="2.983357e-02" style="stop-color:#8BBCE5"/>
			<stop  offset="0.2927" style="stop-color:#5AA4DA"/>
			<stop  offset="0.3265" style="stop-color:#44AED0"/>
			<stop  offset="0.3631" style="stop-color:#39ABC1"/>
			<stop  offset="0.3968" style="stop-color:#2899AD"/>
			<stop  offset="0.4306" style="stop-color:#2293A8"/>
			<stop  offset="0.4607" style="stop-color:#1D889F"/>
			<stop  offset="0.5106" style="stop-color:#127498"/>
			<stop  offset="0.5495" style="stop-color:#127498"/>
			<stop  offset="0.589" style="stop-color:#127498"/>
			<stop  offset="0.6393" style="stop-color:#1D71A7"/>
			<stop  offset="0.68" style="stop-color:#2E72B4"/>
			<stop  offset="0.685" style="stop-color:#137797"/>
			<stop  offset="0.7185" style="stop-color:#6473B7"/>
			<stop  offset="0.739" style="stop-color:#6473B7"/>
			<stop  offset="0.7889" style="stop-color:#8D5FA7"/>
			<stop  offset="0.8268" style="stop-color:#985CA5"/>
			<stop  offset="0.9021" style="stop-color:#A869AB"/>
			<stop  offset="0.9792" style="stop-color:#AF6EAE"/>
			<stop  offset="1" style="stop-color:#BA74B0"/>
		</linearGradient>
		<path fill="url(#SVGID_2_)" d="M55.7,28.5c-3.1,3.7-6.8,5.7-11.3,5.7c-5.8,0-10.2-3.8-10.2-9.2V25c0-4.5,3.2-7.7,8.6-9.7
			c-2.5-2.8-3.7-4.8-3.7-7.6V7.5c0-4.3,3.5-7.5,8.3-7.5C51.7,0,55,3.2,55,7.2v0.1c0,4.1-3.1,6.8-8.2,8.6l8.7,9c1.6-2.3,3-5,4.3-8.1
			l2.2,0.9c-1.5,3.4-3.1,6.4-4.9,8.8l6.1,6.3l-1.9,1.6L55.7,28.5z M54.1,26.9l-9.8-10.2c-5.3,1.8-7.6,4.9-7.6,8.1V25
			c0,4,3.2,7.2,7.8,7.2C48.2,32.1,51.3,30.2,54.1,26.9z M52.6,7.4L52.6,7.4c0-3-2.3-5.3-5.3-5.3c-3.4,0-5.7,2.4-5.7,5.4v0.1
			c0,2.1,0.9,3.7,3.8,6.8C50.1,12.9,52.6,10.5,52.6,7.4z"/>
		
			<linearGradient id="SVGID_3_" gradientUnits="userSpaceOnUse" x1="413.0578" y1="490.5407" x2="970.8272" y2="490.5407" gradientTransform="matrix(1 0 0 1 -413.0578 -473.3026)">
			<stop  offset="0" style="stop-color:#99A1D1"/>
			<stop  offset="2.983357e-02" style="stop-color:#8BBCE5"/>
			<stop  offset="0.2927" style="stop-color:#5AA4DA"/>
			<stop  offset="0.3265" style="stop-color:#44AED0"/>
			<stop  offset="0.3631" style="stop-color:#39ABC1"/>
			<stop  offset="0.3968" style="stop-color:#2899AD"/>
			<stop  offset="0.4306" style="stop-color:#2293A8"/>
			<stop  offset="0.4607" style="stop-color:#1D889F"/>
			<stop  offset="0.5106" style="stop-color:#127498"/>
			<stop  offset="0.5495" style="stop-color:#127498"/>
			<stop  offset="0.589" style="stop-color:#127498"/>
			<stop  offset="0.6393" style="stop-color:#1D71A7"/>
			<stop  offset="0.68" style="stop-color:#2E72B4"/>
			<stop  offset="0.685" style="stop-color:#137797"/>
			<stop  offset="0.7185" style="stop-color:#6473B7"/>
			<stop  offset="0.739" style="stop-color:#6473B7"/>
			<stop  offset="0.7889" style="stop-color:#8D5FA7"/>
			<stop  offset="0.8268" style="stop-color:#985CA5"/>
			<stop  offset="0.9021" style="stop-color:#A869AB"/>
			<stop  offset="0.9792" style="stop-color:#AF6EAE"/>
			<stop  offset="1" style="stop-color:#BA74B0"/>
		</linearGradient>
		<path fill="url(#SVGID_3_)" d="M77.7,0.6h14c4.1,0,7.4,1.3,9.4,3.3c1.6,1.6,2.5,3.8,2.5,6.2v0.1c0,5.6-4.1,8.7-9.7,9.5l11,14.2
			h-3.1L91.1,20H91H80.2v13.8h-2.5V0.6z M91.4,17.8c5.6,0,9.7-2.8,9.7-7.6v-0.1c0-4.5-3.5-7.3-9.5-7.3H80.2v15H91.4z"/>
		
			<linearGradient id="SVGID_4_" gradientUnits="userSpaceOnUse" x1="413.0578" y1="490.5407" x2="970.8272" y2="490.5407" gradientTransform="matrix(1 0 0 1 -413.0578 -473.3026)">
			<stop  offset="0" style="stop-color:#99A1D1"/>
			<stop  offset="2.983357e-02" style="stop-color:#8BBCE5"/>
			<stop  offset="0.2927" style="stop-color:#5AA4DA"/>
			<stop  offset="0.3265" style="stop-color:#44AED0"/>
			<stop  offset="0.3631" style="stop-color:#39ABC1"/>
			<stop  offset="0.3968" style="stop-color:#2899AD"/>
			<stop  offset="0.4306" style="stop-color:#2293A8"/>
			<stop  offset="0.4607" style="stop-color:#1D889F"/>
			<stop  offset="0.5106" style="stop-color:#127498"/>
			<stop  offset="0.5495" style="stop-color:#127498"/>
			<stop  offset="0.589" style="stop-color:#127498"/>
			<stop  offset="0.6393" style="stop-color:#1D71A7"/>
			<stop  offset="0.68" style="stop-color:#2E72B4"/>
			<stop  offset="0.685" style="stop-color:#137797"/>
			<stop  offset="0.7185" style="stop-color:#6473B7"/>
			<stop  offset="0.739" style="stop-color:#6473B7"/>
			<stop  offset="0.7889" style="stop-color:#8D5FA7"/>
			<stop  offset="0.8268" style="stop-color:#985CA5"/>
			<stop  offset="0.9021" style="stop-color:#A869AB"/>
			<stop  offset="0.9792" style="stop-color:#AF6EAE"/>
			<stop  offset="1" style="stop-color:#BA74B0"/>
		</linearGradient>
		<path fill="url(#SVGID_4_)" d="M136.1,2.8h-11.6V0.6h25.6v2.3h-11.6v31h-2.5V2.8z"/>
		
			<linearGradient id="SVGID_5_" gradientUnits="userSpaceOnUse" x1="413.0578" y1="490.5407" x2="970.8272" y2="490.5407" gradientTransform="matrix(1 0 0 1 -413.0578 -473.3026)">
			<stop  offset="0" style="stop-color:#99A1D1"/>
			<stop  offset="2.983357e-02" style="stop-color:#8BBCE5"/>
			<stop  offset="0.2927" style="stop-color:#5AA4DA"/>
			<stop  offset="0.3265" style="stop-color:#44AED0"/>
			<stop  offset="0.3631" style="stop-color:#39ABC1"/>
			<stop  offset="0.3968" style="stop-color:#2899AD"/>
			<stop  offset="0.4306" style="stop-color:#2293A8"/>
			<stop  offset="0.4607" style="stop-color:#1D889F"/>
			<stop  offset="0.5106" style="stop-color:#127498"/>
			<stop  offset="0.5495" style="stop-color:#127498"/>
			<stop  offset="0.589" style="stop-color:#127498"/>
			<stop  offset="0.6393" style="stop-color:#1D71A7"/>
			<stop  offset="0.68" style="stop-color:#2E72B4"/>
			<stop  offset="0.685" style="stop-color:#137797"/>
			<stop  offset="0.7185" style="stop-color:#6473B7"/>
			<stop  offset="0.739" style="stop-color:#6473B7"/>
			<stop  offset="0.7889" style="stop-color:#8D5FA7"/>
			<stop  offset="0.8268" style="stop-color:#985CA5"/>
			<stop  offset="0.9021" style="stop-color:#A869AB"/>
			<stop  offset="0.9792" style="stop-color:#AF6EAE"/>
			<stop  offset="1" style="stop-color:#BA74B0"/>
		</linearGradient>
		<path fill="url(#SVGID_5_)" d="M161.3,0.6h23.6v2.3h-21.2v13.1h19v2.3h-19v13.3h21.4v2.3h-23.9V0.6z"/>
		
			<linearGradient id="SVGID_6_" gradientUnits="userSpaceOnUse" x1="413.0578" y1="490.5407" x2="970.8272" y2="490.5407" gradientTransform="matrix(1 0 0 1 -413.0578 -473.3026)">
			<stop  offset="0" style="stop-color:#99A1D1"/>
			<stop  offset="2.983357e-02" style="stop-color:#8BBCE5"/>
			<stop  offset="0.2927" style="stop-color:#5AA4DA"/>
			<stop  offset="0.3265" style="stop-color:#44AED0"/>
			<stop  offset="0.3631" style="stop-color:#39ABC1"/>
			<stop  offset="0.3968" style="stop-color:#2899AD"/>
			<stop  offset="0.4306" style="stop-color:#2293A8"/>
			<stop  offset="0.4607" style="stop-color:#1D889F"/>
			<stop  offset="0.5106" style="stop-color:#127498"/>
			<stop  offset="0.5495" style="stop-color:#127498"/>
			<stop  offset="0.589" style="stop-color:#127498"/>
			<stop  offset="0.6393" style="stop-color:#1D71A7"/>
			<stop  offset="0.68" style="stop-color:#2E72B4"/>
			<stop  offset="0.685" style="stop-color:#137797"/>
			<stop  offset="0.7185" style="stop-color:#6473B7"/>
			<stop  offset="0.739" style="stop-color:#6473B7"/>
			<stop  offset="0.7889" style="stop-color:#8D5FA7"/>
			<stop  offset="0.8268" style="stop-color:#985CA5"/>
			<stop  offset="0.9021" style="stop-color:#A869AB"/>
			<stop  offset="0.9792" style="stop-color:#AF6EAE"/>
			<stop  offset="1" style="stop-color:#BA74B0"/>
		</linearGradient>
		<path fill="url(#SVGID_6_)" d="M195.2,17.3L195.2,17.3c0-9.5,7-17.3,16.6-17.3c5.9,0,9.5,2.2,12.9,5.3L223,7.1
			c-2.9-2.8-6.2-4.9-11.2-4.9c-8,0-14,6.5-14,14.9v0.1c0,8.4,6.1,15,14.1,15c4.8,0,8.1-1.9,11.4-5.2l1.7,1.6
			c-3.5,3.5-7.3,5.8-13.2,5.8C202.3,34.4,195.2,26.8,195.2,17.3z"/>
		
			<linearGradient id="SVGID_7_" gradientUnits="userSpaceOnUse" x1="413.0578" y1="490.5407" x2="970.8272" y2="490.5407" gradientTransform="matrix(1 0 0 1 -413.0578 -473.3026)">
			<stop  offset="0" style="stop-color:#99A1D1"/>
			<stop  offset="2.983357e-02" style="stop-color:#8BBCE5"/>
			<stop  offset="0.2927" style="stop-color:#5AA4DA"/>
			<stop  offset="0.3265" style="stop-color:#44AED0"/>
			<stop  offset="0.3631" style="stop-color:#39ABC1"/>
			<stop  offset="0.3968" style="stop-color:#2899AD"/>
			<stop  offset="0.4306" style="stop-color:#2293A8"/>
			<stop  offset="0.4607" style="stop-color:#1D889F"/>
			<stop  offset="0.5106" style="stop-color:#127498"/>
			<stop  offset="0.5495" style="stop-color:#127498"/>
			<stop  offset="0.589" style="stop-color:#127498"/>
			<stop  offset="0.6393" style="stop-color:#1D71A7"/>
			<stop  offset="0.68" style="stop-color:#2E72B4"/>
			<stop  offset="0.685" style="stop-color:#137797"/>
			<stop  offset="0.7185" style="stop-color:#6473B7"/>
			<stop  offset="0.739" style="stop-color:#6473B7"/>
			<stop  offset="0.7889" style="stop-color:#8D5FA7"/>
			<stop  offset="0.8268" style="stop-color:#985CA5"/>
			<stop  offset="0.9021" style="stop-color:#A869AB"/>
			<stop  offset="0.9792" style="stop-color:#AF6EAE"/>
			<stop  offset="1" style="stop-color:#BA74B0"/>
		</linearGradient>
		<path fill="url(#SVGID_7_)" d="M235.4,0.6h2.5V16h21.3V0.6h2.5v33.2h-2.5V18.2h-21.3v15.6h-2.5V0.6z"/>
		
			<linearGradient id="SVGID_8_" gradientUnits="userSpaceOnUse" x1="413.0578" y1="490.5407" x2="970.8272" y2="490.5407" gradientTransform="matrix(1 0 0 1 -413.0578 -473.3026)">
			<stop  offset="0" style="stop-color:#99A1D1"/>
			<stop  offset="2.983357e-02" style="stop-color:#8BBCE5"/>
			<stop  offset="0.2927" style="stop-color:#5AA4DA"/>
			<stop  offset="0.3265" style="stop-color:#44AED0"/>
			<stop  offset="0.3631" style="stop-color:#39ABC1"/>
			<stop  offset="0.3968" style="stop-color:#2899AD"/>
			<stop  offset="0.4306" style="stop-color:#2293A8"/>
			<stop  offset="0.4607" style="stop-color:#1D889F"/>
			<stop  offset="0.5106" style="stop-color:#127498"/>
			<stop  offset="0.5495" style="stop-color:#127498"/>
			<stop  offset="0.589" style="stop-color:#127498"/>
			<stop  offset="0.6393" style="stop-color:#1D71A7"/>
			<stop  offset="0.68" style="stop-color:#2E72B4"/>
			<stop  offset="0.685" style="stop-color:#137797"/>
			<stop  offset="0.7185" style="stop-color:#6473B7"/>
			<stop  offset="0.739" style="stop-color:#6473B7"/>
			<stop  offset="0.7889" style="stop-color:#8D5FA7"/>
			<stop  offset="0.8268" style="stop-color:#985CA5"/>
			<stop  offset="0.9021" style="stop-color:#A869AB"/>
			<stop  offset="0.9792" style="stop-color:#AF6EAE"/>
			<stop  offset="1" style="stop-color:#BA74B0"/>
		</linearGradient>
		<path fill="url(#SVGID_8_)" d="M275.1,0.6h2.3l22.9,28.9V0.6h2.4v33.2h-1.9L277.4,4.3v29.5h-2.4V0.6z"/>
		
			<linearGradient id="SVGID_9_" gradientUnits="userSpaceOnUse" x1="413.0578" y1="490.5407" x2="970.8272" y2="490.5407" gradientTransform="matrix(1 0 0 1 -413.0578 -473.3026)">
			<stop  offset="0" style="stop-color:#99A1D1"/>
			<stop  offset="2.983357e-02" style="stop-color:#8BBCE5"/>
			<stop  offset="0.2927" style="stop-color:#5AA4DA"/>
			<stop  offset="0.3265" style="stop-color:#44AED0"/>
			<stop  offset="0.3631" style="stop-color:#39ABC1"/>
			<stop  offset="0.3968" style="stop-color:#2899AD"/>
			<stop  offset="0.4306" style="stop-color:#2293A8"/>
			<stop  offset="0.4607" style="stop-color:#1D889F"/>
			<stop  offset="0.5106" style="stop-color:#127498"/>
			<stop  offset="0.5495" style="stop-color:#127498"/>
			<stop  offset="0.589" style="stop-color:#127498"/>
			<stop  offset="0.6393" style="stop-color:#1D71A7"/>
			<stop  offset="0.68" style="stop-color:#2E72B4"/>
			<stop  offset="0.685" style="stop-color:#137797"/>
			<stop  offset="0.7185" style="stop-color:#6473B7"/>
			<stop  offset="0.739" style="stop-color:#6473B7"/>
			<stop  offset="0.7889" style="stop-color:#8D5FA7"/>
			<stop  offset="0.8268" style="stop-color:#985CA5"/>
			<stop  offset="0.9021" style="stop-color:#A869AB"/>
			<stop  offset="0.9792" style="stop-color:#AF6EAE"/>
			<stop  offset="1" style="stop-color:#BA74B0"/>
		</linearGradient>
		<path fill="url(#SVGID_9_)" d="M314.7,17.3L314.7,17.3c0-9.2,6.7-17.3,16.8-17.3s16.7,8,16.7,17.1c0,0,0,0,0,0.1
			c0,9.1-6.7,17.2-16.8,17.2C321.3,34.4,314.7,26.4,314.7,17.3z M345.6,17.3L345.6,17.3c0-8.3-6-15.1-14.2-15.1
			c-8.2,0-14.1,6.7-14.1,14.9v0.1c0,8.2,6,15,14.2,15C339.7,32.1,345.6,25.5,345.6,17.3z"/>
		
			<linearGradient id="SVGID_10_" gradientUnits="userSpaceOnUse" x1="413.0578" y1="490.5407" x2="970.8272" y2="490.5407" gradientTransform="matrix(1 0 0 1 -413.0578 -473.3026)">
			<stop  offset="0" style="stop-color:#99A1D1"/>
			<stop  offset="2.983357e-02" style="stop-color:#8BBCE5"/>
			<stop  offset="0.2927" style="stop-color:#5AA4DA"/>
			<stop  offset="0.3265" style="stop-color:#44AED0"/>
			<stop  offset="0.3631" style="stop-color:#39ABC1"/>
			<stop  offset="0.3968" style="stop-color:#2899AD"/>
			<stop  offset="0.4306" style="stop-color:#2293A8"/>
			<stop  offset="0.4607" style="stop-color:#1D889F"/>
			<stop  offset="0.5106" style="stop-color:#127498"/>
			<stop  offset="0.5495" style="stop-color:#127498"/>
			<stop  offset="0.589" style="stop-color:#127498"/>
			<stop  offset="0.6393" style="stop-color:#1D71A7"/>
			<stop  offset="0.68" style="stop-color:#2E72B4"/>
			<stop  offset="0.685" style="stop-color:#137797"/>
			<stop  offset="0.7185" style="stop-color:#6473B7"/>
			<stop  offset="0.739" style="stop-color:#6473B7"/>
			<stop  offset="0.7889" style="stop-color:#8D5FA7"/>
			<stop  offset="0.8268" style="stop-color:#985CA5"/>
			<stop  offset="0.9021" style="stop-color:#A869AB"/>
			<stop  offset="0.9792" style="stop-color:#AF6EAE"/>
			<stop  offset="1" style="stop-color:#BA74B0"/>
		</linearGradient>
		<path fill="url(#SVGID_10_)" d="M360.2,0.6h2.5v31h19.5v2.3h-22V0.6z"/>
		
			<linearGradient id="SVGID_11_" gradientUnits="userSpaceOnUse" x1="413.0578" y1="490.5407" x2="970.8272" y2="490.5407" gradientTransform="matrix(1 0 0 1 -413.0578 -473.3026)">
			<stop  offset="0" style="stop-color:#99A1D1"/>
			<stop  offset="2.983357e-02" style="stop-color:#8BBCE5"/>
			<stop  offset="0.2927" style="stop-color:#5AA4DA"/>
			<stop  offset="0.3265" style="stop-color:#44AED0"/>
			<stop  offset="0.3631" style="stop-color:#39ABC1"/>
			<stop  offset="0.3968" style="stop-color:#2899AD"/>
			<stop  offset="0.4306" style="stop-color:#2293A8"/>
			<stop  offset="0.4607" style="stop-color:#1D889F"/>
			<stop  offset="0.5106" style="stop-color:#127498"/>
			<stop  offset="0.5495" style="stop-color:#127498"/>
			<stop  offset="0.589" style="stop-color:#127498"/>
			<stop  offset="0.6393" style="stop-color:#1D71A7"/>
			<stop  offset="0.68" style="stop-color:#2E72B4"/>
			<stop  offset="0.685" style="stop-color:#137797"/>
			<stop  offset="0.7185" style="stop-color:#6473B7"/>
			<stop  offset="0.739" style="stop-color:#6473B7"/>
			<stop  offset="0.7889" style="stop-color:#8D5FA7"/>
			<stop  offset="0.8268" style="stop-color:#985CA5"/>
			<stop  offset="0.9021" style="stop-color:#A869AB"/>
			<stop  offset="0.9792" style="stop-color:#AF6EAE"/>
			<stop  offset="1" style="stop-color:#BA74B0"/>
		</linearGradient>
		<path fill="url(#SVGID_11_)" d="M389.8,17.3L389.8,17.3c0-9.2,6.7-17.3,16.8-17.3c10.1,0,16.7,8,16.7,17.1c0,0,0,0,0,0.1
			c0,9.1-6.7,17.2-16.8,17.2C396.4,34.4,389.8,26.4,389.8,17.3z M420.7,17.3L420.7,17.3c0-8.3-6-15.1-14.2-15.1
			c-8.2,0-14.1,6.7-14.1,14.9v0.1c0,8.2,6,15,14.2,15C414.8,32.1,420.7,25.5,420.7,17.3z"/>
		
			<linearGradient id="SVGID_12_" gradientUnits="userSpaceOnUse" x1="413.0578" y1="490.5407" x2="970.8272" y2="490.5407" gradientTransform="matrix(1 0 0 1 -413.0578 -473.3026)">
			<stop  offset="0" style="stop-color:#99A1D1"/>
			<stop  offset="2.983357e-02" style="stop-color:#8BBCE5"/>
			<stop  offset="0.2927" style="stop-color:#5AA4DA"/>
			<stop  offset="0.3265" style="stop-color:#44AED0"/>
			<stop  offset="0.3631" style="stop-color:#39ABC1"/>
			<stop  offset="0.3968" style="stop-color:#2899AD"/>
			<stop  offset="0.4306" style="stop-color:#2293A8"/>
			<stop  offset="0.4607" style="stop-color:#1D889F"/>
			<stop  offset="0.5106" style="stop-color:#127498"/>
			<stop  offset="0.5495" style="stop-color:#127498"/>
			<stop  offset="0.589" style="stop-color:#127498"/>
			<stop  offset="0.6393" style="stop-color:#1D71A7"/>
			<stop  offset="0.68" style="stop-color:#2E72B4"/>
			<stop  offset="0.685" style="stop-color:#137797"/>
			<stop  offset="0.7185" style="stop-color:#6473B7"/>
			<stop  offset="0.739" style="stop-color:#6473B7"/>
			<stop  offset="0.7889" style="stop-color:#8D5FA7"/>
			<stop  offset="0.8268" style="stop-color:#985CA5"/>
			<stop  offset="0.9021" style="stop-color:#A869AB"/>
			<stop  offset="0.9792" style="stop-color:#AF6EAE"/>
			<stop  offset="1" style="stop-color:#BA74B0"/>
		</linearGradient>
		<path fill="url(#SVGID_12_)" d="M433.8,17.3L433.8,17.3c0-9.1,6.5-17.3,16.4-17.3c5.4,0,8.8,1.6,12.2,4.4l-1.6,1.9
			c-2.6-2.3-5.7-4-10.7-4c-8.1,0-13.7,6.8-13.7,14.9v0.1c0,8.6,5.4,15,14.2,15c4.2,0,8.2-1.8,10.6-3.8v-9.5h-11.1v-2.3h13.5v12.8
			c-3,2.7-7.6,5-13.1,5C440,34.4,433.8,26.6,433.8,17.3z"/>
		
			<linearGradient id="SVGID_13_" gradientUnits="userSpaceOnUse" x1="413.0578" y1="490.5407" x2="970.8272" y2="490.5407" gradientTransform="matrix(1 0 0 1 -413.0578 -473.3026)">
			<stop  offset="0" style="stop-color:#99A1D1"/>
			<stop  offset="2.983357e-02" style="stop-color:#8BBCE5"/>
			<stop  offset="0.2927" style="stop-color:#5AA4DA"/>
			<stop  offset="0.3265" style="stop-color:#44AED0"/>
			<stop  offset="0.3631" style="stop-color:#39ABC1"/>
			<stop  offset="0.3968" style="stop-color:#2899AD"/>
			<stop  offset="0.4306" style="stop-color:#2293A8"/>
			<stop  offset="0.4607" style="stop-color:#1D889F"/>
			<stop  offset="0.5106" style="stop-color:#127498"/>
			<stop  offset="0.5495" style="stop-color:#127498"/>
			<stop  offset="0.589" style="stop-color:#127498"/>
			<stop  offset="0.6393" style="stop-color:#1D71A7"/>
			<stop  offset="0.68" style="stop-color:#2E72B4"/>
			<stop  offset="0.685" style="stop-color:#137797"/>
			<stop  offset="0.7185" style="stop-color:#6473B7"/>
			<stop  offset="0.739" style="stop-color:#6473B7"/>
			<stop  offset="0.7889" style="stop-color:#8D5FA7"/>
			<stop  offset="0.8268" style="stop-color:#985CA5"/>
			<stop  offset="0.9021" style="stop-color:#A869AB"/>
			<stop  offset="0.9792" style="stop-color:#AF6EAE"/>
			<stop  offset="1" style="stop-color:#BA74B0"/>
		</linearGradient>
		<path fill="url(#SVGID_13_)" d="M476.4,0.6h2.5v33.2h-2.5V0.6z"/>
		
			<linearGradient id="SVGID_14_" gradientUnits="userSpaceOnUse" x1="413.0578" y1="490.5407" x2="970.8272" y2="490.5407" gradientTransform="matrix(1 0 0 1 -413.0578 -473.3026)">
			<stop  offset="0" style="stop-color:#99A1D1"/>
			<stop  offset="2.983357e-02" style="stop-color:#8BBCE5"/>
			<stop  offset="0.2927" style="stop-color:#5AA4DA"/>
			<stop  offset="0.3265" style="stop-color:#44AED0"/>
			<stop  offset="0.3631" style="stop-color:#39ABC1"/>
			<stop  offset="0.3968" style="stop-color:#2899AD"/>
			<stop  offset="0.4306" style="stop-color:#2293A8"/>
			<stop  offset="0.4607" style="stop-color:#1D889F"/>
			<stop  offset="0.5106" style="stop-color:#127498"/>
			<stop  offset="0.5495" style="stop-color:#127498"/>
			<stop  offset="0.589" style="stop-color:#127498"/>
			<stop  offset="0.6393" style="stop-color:#1D71A7"/>
			<stop  offset="0.68" style="stop-color:#2E72B4"/>
			<stop  offset="0.685" style="stop-color:#137797"/>
			<stop  offset="0.7185" style="stop-color:#6473B7"/>
			<stop  offset="0.739" style="stop-color:#6473B7"/>
			<stop  offset="0.7889" style="stop-color:#8D5FA7"/>
			<stop  offset="0.8268" style="stop-color:#985CA5"/>
			<stop  offset="0.9021" style="stop-color:#A869AB"/>
			<stop  offset="0.9792" style="stop-color:#AF6EAE"/>
			<stop  offset="1" style="stop-color:#BA74B0"/>
		</linearGradient>
		<path fill="url(#SVGID_14_)" d="M492.7,0.6h23.6v2.3h-21.2v13.1h19v2.3h-19v13.3h21.4v2.3h-23.9V0.6z"/>
		
			<linearGradient id="SVGID_15_" gradientUnits="userSpaceOnUse" x1="413.0578" y1="490.5407" x2="970.8272" y2="490.5407" gradientTransform="matrix(1 0 0 1 -413.0578 -473.3026)">
			<stop  offset="0" style="stop-color:#99A1D1"/>
			<stop  offset="2.983357e-02" style="stop-color:#8BBCE5"/>
			<stop  offset="0.2927" style="stop-color:#5AA4DA"/>
			<stop  offset="0.3265" style="stop-color:#44AED0"/>
			<stop  offset="0.3631" style="stop-color:#39ABC1"/>
			<stop  offset="0.3968" style="stop-color:#2899AD"/>
			<stop  offset="0.4306" style="stop-color:#2293A8"/>
			<stop  offset="0.4607" style="stop-color:#1D889F"/>
			<stop  offset="0.5106" style="stop-color:#127498"/>
			<stop  offset="0.5495" style="stop-color:#127498"/>
			<stop  offset="0.589" style="stop-color:#127498"/>
			<stop  offset="0.6393" style="stop-color:#1D71A7"/>
			<stop  offset="0.68" style="stop-color:#2E72B4"/>
			<stop  offset="0.685" style="stop-color:#137797"/>
			<stop  offset="0.7185" style="stop-color:#6473B7"/>
			<stop  offset="0.739" style="stop-color:#6473B7"/>
			<stop  offset="0.7889" style="stop-color:#8D5FA7"/>
			<stop  offset="0.8268" style="stop-color:#985CA5"/>
			<stop  offset="0.9021" style="stop-color:#A869AB"/>
			<stop  offset="0.9792" style="stop-color:#AF6EAE"/>
			<stop  offset="1" style="stop-color:#BA74B0"/>
		</linearGradient>
		<path fill="url(#SVGID_15_)" d="M526,29l1.6-1.9c3.7,3.4,7,4.9,11.9,4.9c5,0,8.4-2.8,8.4-6.6v-0.1c0-3.5-1.9-5.6-9.4-7.1
			c-8-1.6-11.2-4.3-11.2-9.4V8.8c0-4.9,4.5-8.7,10.7-8.7c4.8,0,8,1.3,11.4,4l-1.6,1.9c-3.1-2.7-6.3-3.8-9.9-3.8
			c-4.9,0-8.1,2.8-8.1,6.3v0.1c0,3.5,1.8,5.7,9.7,7.3c7.7,1.6,10.9,4.3,10.9,9.2v0.1c0,5.4-4.6,9.1-11,9.1
			C534.1,34.3,530,32.5,526,29z"/>
	</g>
</g>
</svg>
